<svg xmlns="http://www.w3.org/2000/svg" xmlns:xlink="http://www.w3.org/1999/xlink" viewBox="0 0 907.61 1080"><defs><style>.cls-1{opacity:0.5;}.cls-2{fill:url(#linear-gradient);}.cls-3{fill:url(#linear-gradient-2);}.cls-4{fill:url(#linear-gradient-3);}.cls-5{fill:#00aeea;}.cls-6{fill:#fff;}.cls-7{fill:url(#linear-gradient-4);}</style><linearGradient id="linear-gradient" x1="453.81" y1="2202" x2="453.81" y2="3282" gradientTransform="matrix(1, 0, 0, -1, 0, 3282)" gradientUnits="userSpaceOnUse"><stop offset="0" stop-color="#0452c9"/><stop offset="1" stop-color="#fff" stop-opacity="0"/></linearGradient><linearGradient id="linear-gradient-2" x1="453.8" y1="1080" x2="453.8" gradientUnits="userSpaceOnUse"><stop offset="0" stop-color="#00aeea"/><stop offset="0.75" stop-color="#00aeea" stop-opacity="0"/><stop offset="1" stop-color="#fff" stop-opacity="0"/></linearGradient><linearGradient id="linear-gradient-3" y1="791.3" x2="907.61" y2="791.3" gradientUnits="userSpaceOnUse"><stop offset="0" stop-color="#2686ef"/><stop offset="0.04" stop-color="#2582e8"/><stop offset="1" stop-color="#042753"/></linearGradient><linearGradient id="linear-gradient-4" x1="177.73" y1="343.97" x2="729.87" y2="343.97" gradientUnits="userSpaceOnUse"><stop offset="0" stop-color="#2686ef"/><stop offset="1" stop-color="#042753"/></linearGradient></defs><g id="Layer_2" data-name="Layer 2"><g id="Layer_1-2" data-name="Layer 1"><g class="cls-1"><path class="cls-2" d="M841.39,837.61,455.29,1080l-388-238.35c-13.82-7.29-22.18-19.88-22.19-33.4L44.5,39.72C44.47,17.79,66,0,92.64,0H815c26.59,0,48.14,17.77,48.14,39.69V804.43C863.11,817.8,855,830.27,841.39,837.61Z"/><path class="cls-3" d="M815,26.5c12.39,0,21.65,7,21.65,13.19V804.43c0,3.47-3,7.26-7.83,9.87l-.75.41-.72.45L455.15,1048.8l-374-229.74-.74-.45-.77-.4c-5-2.62-8.06-6.45-8.06-10L71,39.7c0-3.43,2.79-6.24,4.45-7.62C79.74,28.54,86,26.5,92.63,26.5H815M815,0H92.64C66,0,44.48,17.79,44.49,39.72l.56,768.53c0,13.52,8.37,26.11,22.19,33.4L455.29,1080l386.1-242.39c13.56-7.34,21.72-19.81,21.72-33.18V39.69C863.11,17.77,841.55,0,815,0Z"/></g><rect class="cls-4" y="657.78" width="907.61" height="267.04"/><rect class="cls-5" y="670.78" width="907.61" height="4.8"/><rect class="cls-5" y="905.89" width="907.61" height="4.8"/><path class="cls-6" d="M348.41,830.24H285.15l-12.07,29.2H240.77L301.5,723.19h31.14l60.92,136.25H360.47Zm-9.93-23.94-21.61-52.16-21.6,52.16Z"/><path class="cls-6" d="M397.07,846l10.71-23.75c11.48,8.37,28.61,14.21,45,14.21,18.69,0,26.28-6.23,26.28-14.6,0-25.5-79.22-8-79.22-58.59,0-23.16,18.69-42.43,57.42-42.43,17.13,0,34.65,4.09,47.3,12.07l-9.73,23.94c-12.65-7.2-25.69-10.71-37.76-10.71-18.69,0-25.89,7-25.89,15.57,0,25.11,79.22,7.79,79.22,57.81,0,22.77-18.88,42.24-57.81,42.24C430.94,861.77,409.14,855.34,397.07,846Z"/><path class="cls-6" d="M621.69,830.24H558.43l-12.07,29.2H514.05l60.73-136.25h31.14l60.92,136.25H633.75Zm-9.93-23.94-21.61-52.16-21.6,52.16Z"/><ellipse class="cls-7" cx="453.8" cy="343.97" rx="276.07" ry="276.92"/><path class="cls-6" d="M453.8,118.31c124.25,0,225,101,225,225.66s-100.72,225.65-225,225.65-225-101-225-225.65,100.72-225.66,225-225.66m0-13A238.9,238.9,0,0,0,234.54,436.87a238.05,238.05,0,1,0,311.9-312.79,235.76,235.76,0,0,0-92.64-18.77Z"/><polygon class="cls-6" points="364.56 474.04 404.22 405.36 443.88 336.91 483.31 268.23 489.84 257.34 492.74 268.23 504.83 313.45 491.29 336.91 451.62 405.36 412.2 474.04 459.6 474.04 499.27 405.36 519.83 369.8 529.5 405.36 547.88 474.04 590.45 474.04 572.06 405.36 553.68 336.91 548.85 319.26 578.35 268.23 535.3 268.23 533.85 263.15 518.86 207.04 516.92 199.78 475.57 199.78 474.6 201.23 435.9 268.23 396.24 336.91 356.82 405.36 317.15 474.04 364.56 474.04"/></g></g></svg>